HIERARCHY
ROOT Hips
{
  OFFSET 52.0466 86.756 28.9814
  CHANNELS 6 Xposition Yposition Zposition Zrotation Xrotation Yrotation
  JOINT spine
  {
    OFFSET 0 6.84637 0.3937
    CHANNELS 3 Zrotation Xrotation Yrotation
    JOINT spine1
    {
      OFFSET 0 9.49621 0
      CHANNELS 3 Zrotation Xrotation Yrotation
      JOINT spine2
      {
        OFFSET 0 9.09909 0
        CHANNELS 3 Zrotation Xrotation Yrotation
        JOINT Neck
        {
          OFFSET 0 23.3612 1.11378
          CHANNELS 3 Zrotation Xrotation Yrotation
          JOINT Head
          {
            OFFSET 0 7.05802 0
            CHANNELS 3 Zrotation Xrotation Yrotation
            End Site
            {
              OFFSET 0 17.0844 -5.63419
            }
          }
        }
        JOINT RightShoulder
        {
          OFFSET -3.83136 9.82631 -0.533491
          CHANNELS 3 Zrotation Xrotation Yrotation
          JOINT RightArm
          {
            OFFSET 0 12.8881 0
            CHANNELS 3 Zrotation Xrotation Yrotation
            JOINT RightArmRoll
            {
              OFFSET 0 6.50617 0
              CHANNELS 3 Zrotation Xrotation Yrotation
              JOINT RightForeArm
              {
                OFFSET 0 18.9501 0
                CHANNELS 3 Zrotation Xrotation Yrotation
                JOINT RightForeArmRoll
                {
                  OFFSET 0 7.30092 0
                  CHANNELS 3 Zrotation Xrotation Yrotation
                  JOINT RightHand
                  {
                    OFFSET 0 14.6514 0
                    CHANNELS 3 Zrotation Xrotation Yrotation
                    End Site
                    {
                      OFFSET 0 0 0
                    }
                  }
                }
              }
            }
          }
        }
        JOINT LeftShoulder
        {
          OFFSET 3.83136 9.82631 -0.533491
          CHANNELS 3 Zrotation Xrotation Yrotation
          JOINT LeftArm
          {
            OFFSET 0 12.8881 0
            CHANNELS 3 Zrotation Xrotation Yrotation
            JOINT LeftArmRoll
            {
              OFFSET 0 6.50616 0
              CHANNELS 3 Zrotation Xrotation Yrotation
              JOINT LeftForeArm
              {
                OFFSET 0 18.9501 0
                CHANNELS 3 Zrotation Xrotation Yrotation
                JOINT LeftForeArmRoll
                {
                  OFFSET 0 7.30092 0
                  CHANNELS 3 Zrotation Xrotation Yrotation
                  JOINT LeftHand
                  {
                    OFFSET 0 14.6514 0
                    CHANNELS 3 Zrotation Xrotation Yrotation
                    End Site
                    {
                      OFFSET 0 0 0
                    }
                  }
                }
              }
            }
          }
        }
      }
    }
  }
  JOINT RightUpLeg
  {
    OFFSET -6.06837 -1.11278 -0.933477
    CHANNELS 3 Zrotation Xrotation Yrotation
    JOINT RightUpLegRoll
    {
      OFFSET 0 17.1796 0
      CHANNELS 3 Zrotation Xrotation Yrotation
      JOINT RightLeg
      {
        OFFSET 0 -21.2743 0
        CHANNELS 3 Zrotation Xrotation Yrotation
        JOINT RightLegRoll
        {
          OFFSET 0 21.3439 0
          CHANNELS 3 Zrotation Xrotation Yrotation
          JOINT RightFoot
          {
            OFFSET 0 17.7652 0
            CHANNELS 3 Zrotation Xrotation Yrotation
            JOINT RightToeBase
            {
              OFFSET 0 14.8508 0
              CHANNELS 3 Zrotation Xrotation Yrotation
              End Site
              {
                OFFSET 0.0062947 7.19213 -0.829005
              }
            }
          }
        }
      }
    }
  }
  JOINT LeftUpLeg
  {
    OFFSET 6.06837 -1.11278 -0.933477
    CHANNELS 3 Zrotation Xrotation Yrotation
    JOINT LeftUpLegRoll
    {
      OFFSET 0 17.1797 0
      CHANNELS 3 Zrotation Xrotation Yrotation
      JOINT LeftLeg
      {
        OFFSET 0 21.2742 0
        CHANNELS 3 Zrotation Xrotation Yrotation
        JOINT LeftLegRoll
        {
          OFFSET 0 21.5412 0
          CHANNELS 3 Zrotation Xrotation Yrotation
          JOINT LeftFoot
          {
            OFFSET 0 17.5679 0
            CHANNELS 3 Zrotation Xrotation Yrotation
            JOINT LeftToeBase
            {
              OFFSET 0 14.8508 0
              CHANNELS 3 Zrotation Xrotation Yrotation
              End Site
              {
                OFFSET -0.0282102 7.19213 -0.829005
              }
            }
          }
        }
      }
    }
  }
}
MOTION
Frames: 9
Frame Time: 0.00208333
52.7779 52.6254 -3.54066 1.23765 -20.8047 -7.41511 0.434741 -0.228671 4.28676 0.843947 3.60132 8.50386 0.74321 5.23879 8.49841 -4.47752 26.4624 -7.48289 3.67743 0.966681 -9.07525 61.7114 -13.219 -8.16444 122.533 48.5252 -78.676 6.74883e-006 -5.76669e-006 2.42418e-006 -18.2658 67.8366 19.4465 -6.22842e-006 2.37788e-006 -2.99999 8.03052 -4.95135 0.697576 -71.6436 4.25318 -0.552036 -147.706 54.961 37.0182 8.07503e-007 -1.78416e-006 9.74954e-006 -29.7481 25.7533 8.62956 6.57479e-006 6.91892e-006 3 -8.03024 -4.95154 -0.697812 162.902 66.0094 16.4131 180 1.52527e-005 178.383 -66.7852 86.2629 69.4127 -1.98147e-006 1.70924e-006 2.10023 -19.7203 68.0534 19.5719 8.13648 25.2326 -3.48773 -150.106 59.8746 -34.6433 4.54188e-006 -4.6773e-006 -0.810437 149.491 -84.0951 151.22 -2.5591e-006 -2.09025e-006 -2.22387 23.5821 73.226 -25.143 -8.12948 25.2388 3.47818 
52.7748 52.6276 -3.54111 1.23444 -20.8012 -7.41543 0.435371 -0.225128 4.28315 0.845321 3.60702 8.4976 0.744667 5.24449 8.49213 -4.50937 26.4989 -7.46172 3.68928 0.946746 -9.06624 61.7127 -13.2063 -8.15672 122.549 48.5921 -78.6187 6.74883e-006 -5.76669e-006 2.42418e-006 -17.8391 67.7369 19.1292 -6.22842e-006 2.37788e-006 -2.99999 8.03052 -4.95135 0.697576 -71.641 4.23641 -0.544481 -147.662 55.0082 36.9983 8.07503e-007 -1.78416e-006 9.74954e-006 -29.7439 25.624 8.57803 6.57479e-006 6.91892e-006 3 -8.03024 -4.95154 -0.697812 162.907 66.0123 16.4097 180 1.52527e-005 178.383 -66.841 86.2653 69.4667 -1.98147e-006 1.70924e-006 2.10023 -19.7185 68.05 19.5703 8.13648 25.2326 -3.48773 -150.103 59.8783 -34.6403 4.54188e-006 -4.6773e-006 -0.810437 149.458 -84.0935 151.184 -2.5591e-006 -2.09025e-006 -2.22378 23.5755 73.2257 -25.1432 -8.12948 25.2388 3.47818 
52.7728 52.6299 -3.54436 1.23108 -20.7979 -7.41581 0.435986 -0.221748 4.27973 0.846699 3.61234 8.49175 0.746124 5.24982 8.48625 -4.5381 26.5372 -7.44176 3.69873 0.925012 -9.05733 61.717 -13.1937 -8.14897 122.558 48.6585 -78.5601 6.74883e-006 -5.76669e-006 2.42418e-006 -17.4246 67.641 18.8216 -6.22842e-006 2.37788e-006 -2.99999 8.03052 -4.95135 0.697576 -71.6359 4.22189 -0.538307 -147.618 55.0542 36.9764 8.07503e-007 -1.78416e-006 9.74954e-006 -29.7394 25.4958 8.52721 6.57479e-006 6.91892e-006 3 -8.03024 -4.95154 -0.697812 162.914 66.0149 16.4056 180 1.52527e-005 178.383 -66.896 86.2677 69.5201 -1.98147e-006 1.70924e-006 2.10023 -19.7168 68.0468 19.5688 8.13648 25.2326 -3.48773 -150.1 59.8816 -34.6374 4.54188e-006 -4.6773e-006 -0.810437 149.426 -84.0916 151.15 -2.5591e-006 -2.09025e-006 -2.22374 23.5698 73.2259 -25.1441 -8.12948 25.2388 3.47818 
52.7736 52.6299 -3.54433 1.22763 -20.7946 -7.41625 0.436592 -0.218482 4.27644 0.848081 3.61739 8.48617 0.747582 5.25489 8.48065 -4.56464 26.5768 -7.42263 3.70649 0.902019 -9.04848 61.7234 -13.1812 -8.14121 122.563 48.7246 -78.5004 6.74883e-006 -5.76669e-006 2.42418e-006 -17.0194 67.5474 18.5212 -6.22842e-006 2.37788e-006 -2.99999 8.03052 -4.95135 0.697576 -71.6291 4.20893 -0.5331 -147.575 55.0992 36.953 8.07503e-007 -1.78416e-006 9.74954e-006 -29.7347 25.3684 8.47692 6.57479e-006 6.91892e-006 3 -8.03024 -4.95154 -0.697812 162.92 66.0174 16.4012 180 1.52527e-005 178.383 -66.9508 86.27 69.5732 -1.98147e-006 1.70924e-006 2.10023 -19.7151 68.0437 19.5675 8.13648 25.2326 -3.48773 -150.097 59.8846 -34.6346 4.54188e-006 -4.6773e-006 -0.810437 149.395 -84.0893 151.116 -2.5591e-006 -2.09025e-006 -2.22372 23.5646 73.2265 -25.1457 -8.12948 25.2388 3.47818 
52.7743 52.6276 -3.54765 1.22412 -20.7915 -7.41671 0.437191 -0.215282 4.27322 0.849465 3.6223 8.48076 0.749039 5.2598 8.47522 -4.58995 26.6172 -7.40398 3.7133 0.878304 -9.03967 61.731 -13.1687 -8.13342 122.566 48.7905 -78.44 6.74883e-006 -5.76669e-006 2.42418e-006 -16.6205 67.4549 18.2259 -6.22842e-006 2.37788e-006 -2.99999 8.03052 -4.95135 0.697576 -71.6214 4.19686 -0.528445 -147.531 55.1437 36.9288 8.07503e-007 -1.78416e-006 9.74954e-006 -29.73 25.2414 8.427 6.57479e-006 6.91892e-006 3 -8.03024 -4.95154 -0.697812 162.927 66.0199 16.3966 180 1.52527e-005 178.383 -67.0055 86.2724 69.6261 -1.98147e-006 1.70924e-006 2.10023 -19.7135 68.0406 19.5662 8.13648 25.2326 -3.48773 -150.094 59.8874 -34.6319 4.54188e-006 -4.6773e-006 -0.810437 149.364 -84.0869 151.083 -2.5591e-006 -2.09025e-006 -2.22371 23.5597 73.2273 -25.1475 -8.12948 25.2388 3.47818 
52.772 52.631 -3.54834 1.2206 -20.7883 -7.41718 0.43779 -0.212098 4.27002 0.85085 3.62717 8.47539 0.750498 5.26468 8.46982 -4.61498 26.6577 -7.38544 3.71987 0.854409 -9.03087 61.7389 -13.1562 -8.12564 122.568 48.8563 -78.3792 6.74883e-006 -5.76669e-006 2.42418e-006 -16.225 67.3623 17.9336 -6.22842e-006 2.37788e-006 -2.99999 8.03052 -4.95135 0.697576 -71.6134 4.18502 -0.523928 -147.487 55.188 36.9043 8.07503e-007 -1.78416e-006 9.74954e-006 -29.7254 25.1145 8.37728 6.57479e-006 6.91892e-006 3 -8.03024 -4.95154 -0.697812 162.934 66.0223 16.3919 180 1.52527e-005 178.383 -67.0601 86.2747 69.6789 -1.98147e-006 1.70924e-006 2.10023 -19.7118 68.0376 19.5649 8.13648 25.2326 -3.48773 -150.09 59.8903 -34.6292 4.54188e-006 -4.6773e-006 -0.810437 149.333 -84.0844 151.05 -2.5591e-006 -2.09025e-006 -2.22371 23.5549 73.2281 -25.1495 -8.12948 25.2388 3.47818 
52.7765 52.6339 -3.54993 1.21711 -20.7851 -7.41764 0.438391 -0.208882 4.26678 0.852236 3.63212 8.46994 0.751958 5.26963 8.46435 -4.64066 26.6978 -7.36665 3.72693 0.830872 -9.02205 61.7462 -13.1437 -8.11786 122.571 48.9221 -78.3185 6.74883e-006 -5.76669e-006 2.42418e-006 -15.8302 67.2683 17.6424 -6.22842e-006 2.37788e-006 -2.99999 8.03052 -4.95135 0.697576 -71.6059 4.17273 -0.519136 -147.444 55.2327 36.8803 8.07503e-007 -1.78416e-006 9.74954e-006 -29.7212 24.9874 8.32759 6.57479e-006 6.91892e-006 3 -8.03024 -4.95154 -0.697812 162.941 66.0247 16.3874 180 1.52527e-005 178.383 -67.1149 86.277 69.732 -1.98147e-006 1.70924e-006 2.10023 -19.7102 68.0345 19.5636 8.13648 25.2326 -3.48773 -150.087 59.8932 -34.6264 4.54188e-006 -4.6773e-006 -0.810437 149.302 -84.0821 151.017 -2.5591e-006 -2.09025e-006 -2.2237 23.5499 73.2289 -25.1512 -8.12948 25.2388 3.47818 
52.7758 52.6348 -3.55123 1.21369 -20.7819 -7.41806 0.439001 -0.205583 4.26345 0.853621 3.63725 8.46429 0.75342 5.27478 8.45867 -4.66796 26.7371 -7.34725 3.7352 0.808233 -9.01319 61.752 -13.1312 -8.11011 122.577 48.9881 -78.2582 6.74883e-006 -5.76669e-006 2.42418e-006 -15.4334 67.1714 17.3502 -6.22842e-006 2.37788e-006 -2.99999 8.03052 -4.95135 0.697576 -71.5996 4.15932 -0.513653 -147.4 55.2779 36.8572 8.07503e-007 -1.78416e-006 9.74954e-006 -29.7176 24.8596 8.27778 6.57479e-006 6.91892e-006 3 -8.03024 -4.95154 -0.697812 162.948 66.0272 16.3831 180 1.52527e-005 178.383 -67.1701 86.2794 69.7855 -1.98147e-006 1.70924e-006 2.10023 -19.7085 68.0314 19.5622 8.13648 25.2326 -3.48773 -150.084 59.8963 -34.6236 4.54188e-006 -4.6773e-006 -0.810437 149.271 -84.0799 150.984 -2.5591e-006 -2.09025e-006 -2.22367 23.5446 73.2294 -25.1526 -8.12948 25.2388 3.47818 
52.7769 52.6303 -3.55685 1.21037 -20.7785 -7.41842 0.439624 -0.202154 4.25998 0.855004 3.64268 8.45831 0.754883 5.28022 8.45267 -4.6978 26.7749 -7.32685 3.74541 0.787032 -9.00425 61.7554 -13.1186 -8.10237 122.587 49.0543 -78.1985 6.74883e-006 -5.76669e-006 2.42418e-006 -15.0321 67.0705 17.0553 -6.22842e-006 2.37788e-006 -2.99999 8.03052 -4.95135 0.697576 -71.5952 4.14412 -0.507067 -147.356 55.3243 36.8357 8.07503e-007 -1.78416e-006 9.74954e-006 -29.7148 24.7308 8.22768 6.57479e-006 6.91892e-006 3 -8.03024 -4.95154 -0.697812 162.954 66.0299 16.3792 180 1.52527e-005 178.383 -67.2258 86.2817 69.8395 -1.98147e-006 1.70924e-006 2.10023 -19.7068 68.0281 19.5607 8.13648 25.2326 -3.48773 -150.081 59.8997 -34.6207 4.54188e-006 -4.6773e-006 -0.810437 149.239 -84.078 150.949 -2.5591e-006 -2.09025e-006 -2.22362 23.5386 73.2294 -25.1533 -8.12948 25.2388 3.47818 
